<svg xmlns="http://www.w3.org/2000/svg" width="80" height="80" viewBox="0 0 80 80"><path fill="#fff" d="M29.298 63.471l-4.048 4.021c-3.509 3.478-9.216 3.481-12.723 0-1.686-1.673-2.612-3.896-2.612-6.257 0-2.362.927-4.586 2.611-6.258l14.9-14.784c3.088-3.062 8.897-7.571 13.131-3.372 1.943 1.93 5.082 1.917 7.01-.025 1.931-1.942 1.918-5.081-.024-7.009-7.197-7.142-17.834-5.822-27.098 3.37l-14.902 14.784c-3.575 3.549-5.543 8.269-5.543 13.293 0 5.023 1.968 9.742 5.544 13.291 3.679 3.651 8.51 5.475 13.343 5.475 4.834 0 9.667-1.824 13.348-5.477l4.051-4.021c1.942-1.928 1.953-5.065.023-7.009-1.927-1.94-5.068-1.951-7.011-.022zm45.156-57.427c-7.729-7.67-18.538-8.086-25.694-.986l-5.046 5.009c-1.942 1.929-1.955 5.066-.024 7.009 1.93 1.943 5.067 1.954 7.011.025l5.044-5.006c3.707-3.681 8.561-2.155 11.727.986 1.688 1.673 2.615 3.896 2.615 6.258 0 2.363-.928 4.586-2.613 6.259l-15.896 15.77c-7.27 7.212-10.68 3.827-12.134 2.383-1.943-1.929-5.08-1.917-7.01.024-1.93 1.942-1.918 5.082.025 7.01 3.337 3.312 7.146 4.954 11.139 4.954 4.889 0 10.053-2.462 14.963-7.337l15.897-15.771c3.571-3.548 5.542-8.269 5.542-13.293 0-5.022-1.971-9.743-5.546-13.294z"/></svg>