<svg xmlns="http://www.w3.org/2000/svg" width="512" height="512" viewBox="0 0 512 512"><g fill="#3D3535"><path d="M367.894 490.663c-44.422 19.868-78.236 21.337-131.495 21.337-122.802 0-230.834-87.53-230.834-231.713 0-150.072 110.236-280.287 276.68-280.287 130.972 0 224.189 89.01 224.189 212.602 0 108.132-60.694 176.963-140.589 176.963-34.76 0-59.915-19.545-63.633-57.789h-1.458c-23.663 36.775-56.22 57.789-96.156 57.789-47.349 0-76.6-37.198-76.6-97.525 0-90.479 61.05-180.736 167.602-180.736 32.523 0 69.877 12.711 88.398 22.261l-22.55 141.568c-7.413 43.398-2.248 58.056 18.454 58.78 31.833 1.469 70.879-33.77 70.879-119.107 0-96.367-61.217-170.285-175.894-170.285-113.953 0-213.671 87.897-213.671 229.142 0 123.57 79.716 193.814 189.952 193.814 37.777 0 76.455-4.764 106.051-19.478l10.674 42.663zm-61.195-312.576h-22.951c-48.84 0-88.966 48.484-88.966 105.127 0 27.96 14.225 50.699 38.656 50.699 27.392 0 56.231-39.647 62.865-82.321l10.396-73.505z"/><path opacity=".25" enable-background="new" d="M194.783 272.083c0 1.547.211 3.005.289 4.519 2.994-53.749 41.761-98.515 88.665-98.515h21.382l1.581-11.13h-22.951c-48.84 0-88.966 48.484-88.966 105.127zm80.106-227.562c112.796 0 173.735 71.569 175.705 165.621.056-2.17.189-4.23.189-6.467 0-96.367-61.217-170.285-175.894-170.285-113.953 0-213.671 87.897-213.671 229.142 0 1.981.2 3.84.234 5.799 2.527-138.062 100.953-223.811 213.437-223.811zm83.567 255.11c.378-6.912 1.358-14.982 2.994-24.498l22.55-141.568-1.647-.779-20.903 131.217c-2.605 15.215-3.629 26.835-2.994 35.629zm147.745-91.793c-2.36 104.403-62.074 170.596-140.355 170.596-34.76 0-59.915-19.545-63.633-57.789h-1.458c-23.663 36.775-56.22 57.789-96.156 57.789-45.635 0-74.374-34.605-76.399-91.114-.033 1.581-.2 3.161-.2 4.719 0 60.327 29.251 97.525 76.6 97.525 39.936 0 72.493-21.014 96.167-57.789h1.458c3.706 38.244 28.861 57.789 63.622 57.789 79.894 0 140.589-68.831 140.589-176.963 0-1.614-.2-3.161-.234-4.764zm-269.802 293.031c-121.222 0-227.974-85.337-230.701-226.226-.033 1.881-.134 3.751-.134 5.643 0 144.184 108.032 231.713 230.834 231.713 53.259 0 87.073-1.469 131.484-21.337l-2.527-10.095c-43.153 18.777-76.722 20.302-128.957 20.302z"/></g></svg>