<svg height="60" viewBox="0 0 60 60" width="60" xmlns="http://www.w3.org/2000/svg"><title/><g fill="none"><path d="M30 60c16.569 0 30-13.431 30-30 0-16.569-13.431-30-30-30-16.569 0-30 13.431-30 30 0 16.569 13.431 30 30 30z" fill="#CA4638"/><path d="M27.962 27.368c.98-.983 1.065-2.346 1.065-3.115 0-3.069-1.833-7.846-5.373-7.846-1.109 0-2.303.555-2.986 1.409-.725.895-.939 2.045-.939 3.155 0 2.857 1.663 7.591 5.331 7.591 1.066 0 2.218-.512 2.902-1.194zm-1.238 8.102c-.341-.043-.555-.043-.98-.043-.384 0-2.687.086-4.478.683-.938.341-3.667 1.364-3.667 4.392 0 3.028 2.942 5.202 7.505 5.202 4.094 0 6.268-1.961 6.268-4.604 0-2.176-1.407-3.326-4.648-5.629zm12.506-4.316h-4.615v-2.308h4.615v-4.615h2.308v4.615h4.615v2.308h-4.615v4.615h-2.308v-4.615zm-9.478-14.619c.98.811 3.028 2.516 3.028 5.758 0 3.156-1.791 4.648-3.582 6.055-.554.555-1.195 1.152-1.195 2.09s.641 1.45 1.108 1.833l1.536 1.193c1.877 1.578 3.582 3.029 3.582 5.972 0 4.007-3.881 8.059-11.216 8.059-6.182 0-9.168-2.942-9.168-6.099 0-1.535.768-3.71 3.285-5.203 2.643-1.621 6.226-1.832 8.144-1.961-.597-.768-1.279-1.579-1.279-2.9 0-.725.213-1.152.427-1.664-.47.042-.938.086-1.365.086-4.519 0-7.078-3.37-7.078-6.696 0-1.961.895-4.137 2.729-5.715 2.431-2.004 5.33-2.345 7.633-2.345h8.784l-2.729 1.534h-2.644v.001z" fill="#fff"/></g></svg>