<svg xmlns="http://www.w3.org/2000/svg" width="50" height="50" viewBox="0 0 50 50"><g fill="#3D3535"><path d="M42.839 23.282l-17.622-9.897c-.067-.038-.143-.058-.217-.058-.075 0-.151.02-.218.058l-17.622 9.897c-.141.078-.229.228-.229.389v21.2c0 .247.2.445.447.445h11.816v-15.105c0-.246.2-.443.446-.443h10.717c.248 0 .447.197.447.443v15.105h11.816c.246 0 .445-.198.445-.445v-21.2c.001-.161-.086-.311-.226-.389zM49.182 19.533l-6.113-3.773v-8.672c0-.247-.199-.447-.445-.447h-4.988c-.246 0-.445.2-.445.447v5.041l-11.956-7.378c-.072-.045-.154-.067-.235-.067-.082 0-.164.022-.235.067l-23.946 14.782c-.206.126-.272.395-.152.603l1.826 3.153c.061.103.159.179.275.208l.111.015c.081 0 .16-.021.23-.063l21.891-13.184 21.891 13.184c.069.042.148.063.229.063l.11-.015c.115-.029.215-.105.274-.208l1.827-3.153c.121-.208.056-.477-.149-.603z"/></g></svg>