<svg xmlns="http://www.w3.org/2000/svg" width="56.693" height="56.693" viewBox="0 0 56.693 56.693"><g fill="#007BB6"><path d="M28.077.014c-15.507 0-28.077 12.568-28.077 28.07s12.57 28.071 28.077 28.071c15.504 0 28.076-12.568 28.076-28.071 0-15.501-12.573-28.07-28.076-28.07zm15.639 41.705c0 1.25-1.039 2.259-2.317 2.259h-26.7c-1.281 0-2.315-1.009-2.315-2.259v-27.005c0-1.246 1.034-2.257 2.315-2.257h26.699c1.278 0 2.317 1.013 2.317 2.257l.001 27.005zM33.497 24.278c-2.511 0-3.636 1.379-4.266 2.35v.046h-.032l.032-.046v-2.015h-4.732c.063 1.333 0 14.23 0 14.23h4.732v-7.948c0-.43.032-.85.156-1.153.342-.848 1.121-1.733 2.427-1.733 1.712 0 2.399 1.306 2.399 3.22v7.613h4.73v-8.159c0-4.372-2.333-6.405-5.446-6.405zM19.545 17.747c-1.618 0-2.678 1.065-2.678 2.461 0 1.365 1.025 2.46 2.616 2.46h.03c1.649 0 2.679-1.095 2.679-2.46-.034-1.395-1.028-2.461-2.647-2.461zM17.149 24.613h4.732v14.23h-4.732z"/></g></svg>