<svg height="56.693" viewBox="0 0 56.693 56.693" width="56.693" xmlns="http://www.w3.org/2000/svg"><path d="M33.977 29.739c-.658-.43-1.469-.799-2.404-1.098-.926-.297-1.971-.572-3.109-.814-.898-.209-1.555-.369-1.945-.477-.383-.105-.764-.254-1.133-.441-.355-.178-.639-.391-.838-.637-.189-.23-.281-.498-.281-.818 0-.52.285-.963.873-1.348.607-.398 1.428-.602 2.436-.602 1.086 0 1.875.184 2.35.545.484.369.91.895 1.262 1.561.303.52.574.885.838 1.115.283.252.691.379 1.211.379.574 0 1.061-.203 1.445-.604.383-.396.576-.854.576-1.357 0-.521-.148-1.062-.439-1.604-.289-.539-.75-1.055-1.367-1.537-.613-.481-1.396-.87-2.322-1.161-.922-.285-2.025-.432-3.283-.432-1.57 0-2.959.221-4.125.652-1.184.438-2.102 1.075-2.73 1.895-.633.826-.955 1.783-.955 2.846 0 1.115.306 2.062.912 2.82.594.742 1.406 1.336 2.414 1.766.986.42 2.227.789 3.686 1.104 1.074.225 1.941.439 2.58.639.613.191 1.119.471 1.5.828.365.342.545.779.545 1.334 0 .703-.34 1.275-1.041 1.754-.717.49-1.67.738-2.834.738-.844 0-1.533-.123-2.043-.363-.506-.24-.902-.547-1.178-.914-.287-.379-.559-.859-.809-1.43-.223-.523-.5-.932-.824-1.205-.338-.287-.756-.432-1.238-.432-.59 0-1.082.184-1.469.547-.389.363-.586.812-.586 1.328 0 .822.304 1.68.9 2.539.592.854 1.37 1.545 2.315 2.055 1.322.701 3.016 1.059 5.035 1.059 1.684 0 3.162-.262 4.395-.773 1.246-.52 2.207-1.248 2.857-2.166.654-.928.984-1.982.984-3.141 0-.967-.191-1.801-.572-2.477-.382-.671-.916-1.235-1.589-1.673zM28.346 5.157c-13.599 0-24.624 11.027-24.624 24.625 0 13.6 11.024 24.623 24.624 24.623 13.602 0 24.625-11.023 24.625-24.623 0-13.598-11.024-24.625-24.625-24.625zm6.021 39.947c-1.393 0-2.707-.352-3.854-.969-.836.152-1.695.234-2.574.234-7.768 0-14.064-6.297-14.064-14.062 0-.969.097-1.914.284-2.828-.711-1.211-1.121-2.619-1.121-4.125 0-4.504 3.65-8.157 8.155-8.157 1.598 0 3.082.461 4.34 1.254.781-.137 1.586-.207 2.406-.207 7.766 0 14.062 6.297 14.062 14.063 0 1.035-.113 2.045-.326 3.018.543 1.092.85 2.32.85 3.623 0 4.504-3.652 8.156-8.158 8.156z"/></svg>