<?xml version="1.0" encoding="utf-8"?>
<!-- Generator: Adobe Illustrator 16.0.0, SVG Export Plug-In . SVG Version: 6.00 Build 0)  -->
<!DOCTYPE svg PUBLIC "-//W3C//DTD SVG 1.1//EN" "http://www.w3.org/Graphics/SVG/1.1/DTD/svg11.dtd">
<svg version="1.1" id="Capa_1" xmlns="http://www.w3.org/2000/svg" xmlns:xlink="http://www.w3.org/1999/xlink" x="0px" y="0px"
	 width="80px" height="80px" viewBox="0 0 80 80" enable-background="new 0 0 80 80" xml:space="preserve">
<g>
	<path fill="#FFFFFF" d="M29.298,63.471l-4.048,4.021c-3.509,3.478-9.216,3.481-12.723,0c-1.686-1.673-2.612-3.896-2.612-6.257
		c0-2.362,0.927-4.586,2.611-6.258l14.9-14.784c3.088-3.062,8.897-7.571,13.131-3.372c1.943,1.93,5.082,1.917,7.01-0.025
		c1.931-1.942,1.918-5.081-0.024-7.009c-7.197-7.142-17.834-5.822-27.098,3.37L5.543,47.941C1.968,51.49,0,56.21,0,61.234
		c0,5.023,1.968,9.742,5.544,13.291C9.223,78.176,14.054,80,18.887,80c4.834,0,9.667-1.824,13.348-5.477l4.051-4.021
		c1.942-1.928,1.953-5.065,0.023-7.009C34.382,61.553,31.241,61.542,29.298,63.471z M74.454,6.044
		c-7.729-7.67-18.538-8.086-25.694-0.986l-5.046,5.009c-1.942,1.929-1.955,5.066-0.024,7.009c1.93,1.943,5.067,1.954,7.011,0.025
		l5.044-5.006c3.707-3.681,8.561-2.155,11.727,0.986c1.688,1.673,2.615,3.896,2.615,6.258c0,2.363-0.928,4.586-2.613,6.259
		l-15.896,15.77c-7.27,7.212-10.68,3.827-12.134,2.383c-1.943-1.929-5.08-1.917-7.01,0.024c-1.93,1.942-1.918,5.082,0.025,7.01
		c3.337,3.312,7.146,4.954,11.139,4.954c4.889,0,10.053-2.462,14.963-7.337l15.897-15.771C78.029,29.083,80,24.362,80,19.338
		C80,14.316,78.029,9.595,74.454,6.044z"/>
</g>
</svg>
