<?xml version="1.0" encoding="utf-8"?>
<!-- Generator: Adobe Illustrator 16.0.0, SVG Export Plug-In . SVG Version: 6.00 Build 0)  -->
<!DOCTYPE svg PUBLIC "-//W3C//DTD SVG 1.1//EN" "http://www.w3.org/Graphics/SVG/1.1/DTD/svg11.dtd">
<svg version="1.1"
	 id="Layer_1" xmlns:cc="http://creativecommons.org/ns#" xmlns:dc="http://purl.org/dc/elements/1.1/" xmlns:rdf="http://www.w3.org/1999/02/22-rdf-syntax-ns#" xmlns:svg="http://www.w3.org/2000/svg"
	 xmlns="http://www.w3.org/2000/svg" xmlns:xlink="http://www.w3.org/1999/xlink" x="0px" y="0px" width="512px" height="512px"
	 viewBox="0 0 512 512" enable-background="new 0 0 512 512" xml:space="preserve">
<g id="g3228" transform="matrix(11.130435,0,0,11.130435,5.5652125,-5e-6)">
	<g id="g236">
		<path id="path243" fill="#3D3535" d="M32.553,44.083C28.562,45.868,25.524,46,20.739,46C9.706,46,0,38.136,0,25.182
			C0,11.699,9.904,0,24.858,0C36.625,0,45,7.997,45,19.101C45,28.816,39.547,35,32.369,35c-3.123,0-5.383-1.756-5.717-5.192h-0.131
			C24.395,33.112,21.47,35,17.882,35C13.628,35,11,31.658,11,26.238C11,18.109,16.485,10,26.058,10c2.922,0,6.278,1.142,7.942,2
			l-2.026,12.719c-0.666,3.899-0.202,5.216,1.658,5.281C36.492,30.132,40,26.966,40,19.299C40,10.641,34.5,4,24.197,4
			C13.959,4,5,11.897,5,24.587C5,35.689,12.162,42,22.066,42c3.394,0,6.869-0.428,9.528-1.75L32.553,44.083z M27.055,16
			c-1.055,0-1.264,0-2.062,0C20.605,16,17,20.356,17,25.445C17,27.957,18.278,30,20.473,30c2.461,0,5.052-3.562,5.648-7.396
			L27.055,16z"/>
		<path id="path245" opacity="0.25" fill="#3D3535" enable-background="new    " d="M17,24.445c0,0.139,0.019,0.27,0.026,0.406
			C17.295,20.022,20.778,16,24.992,16h1.921l0.142-1h-2.062C20.605,15,17,19.356,17,24.445z M24.197,4
			c10.134,0,15.609,6.43,15.786,14.88C39.988,18.685,40,18.5,40,18.299C40,9.641,34.5,3,24.197,3C13.959,3,5,10.897,5,23.587
			c0,0.178,0.018,0.345,0.021,0.521C5.248,11.704,14.091,4,24.197,4z M31.705,26.92c0.034-0.621,0.122-1.346,0.269-2.201L34,12
			c-0.044-0.022-0.102-0.047-0.148-0.07l-1.878,11.789C31.74,25.086,31.648,26.13,31.705,26.92z M44.979,18.673
			C44.767,28.053,39.402,34,32.369,34c-3.123,0-5.383-1.756-5.717-5.192h-0.131C24.395,32.112,21.47,34,17.882,34
			c-4.1,0-6.682-3.109-6.864-8.186C11.015,25.956,11,26.098,11,26.238C11,31.658,13.628,35,17.882,35
			c3.588,0,6.513-1.888,8.64-5.192h0.131C26.986,33.244,29.246,35,32.369,35C39.547,35,45,28.816,45,19.101
			C45,18.956,44.982,18.817,44.979,18.673z M20.739,45C9.848,45,0.257,37.333,0.012,24.675C0.009,24.844,0,25.012,0,25.182
			C0,38.136,9.706,46,20.739,46c4.785,0,7.823-0.132,11.813-1.917l-0.227-0.907C28.448,44.863,25.432,45,20.739,45z"/>
	</g>
</g>
</svg>
