<?xml version="1.0" encoding="utf-8"?>
<!-- Generator: Adobe Illustrator 16.0.0, SVG Export Plug-In . SVG Version: 6.00 Build 0)  -->
<!DOCTYPE svg PUBLIC "-//W3C//DTD SVG 1.1//EN" "http://www.w3.org/Graphics/SVG/1.1/DTD/svg11.dtd">
<svg version="1.1" id="Layer_1" xmlns="http://www.w3.org/2000/svg" xmlns:xlink="http://www.w3.org/1999/xlink" x="0px" y="0px"
	 width="56.693px" height="56.693px" viewBox="0 0 56.693 56.693" enable-background="new 0 0 56.693 56.693" xml:space="preserve">
<g>
	<path fill="#007BB6" d="M28.077,0.014C12.57,0.014,0,12.582,0,28.084s12.57,28.071,28.077,28.071
		c15.504,0,28.076-12.568,28.076-28.071C56.153,12.583,43.58,0.014,28.077,0.014z M43.716,41.719c0,1.25-1.039,2.259-2.317,2.259
		h-26.7c-1.281,0-2.315-1.009-2.315-2.259V14.714c0-1.246,1.034-2.257,2.315-2.257h26.699c1.278,0,2.317,1.013,2.317,2.257
		L43.716,41.719L43.716,41.719z"/>
	<path fill="#007BB6" d="M33.497,24.278c-2.511,0-3.636,1.379-4.266,2.35v0.046h-0.032c0.013-0.014,0.024-0.031,0.032-0.046v-2.015
		h-4.732c0.063,1.333,0,14.23,0,14.23h4.732v-7.948c0-0.43,0.032-0.85,0.156-1.153c0.342-0.848,1.121-1.733,2.427-1.733
		c1.712,0,2.399,1.306,2.399,3.22v7.613h4.73v-8.159C38.943,26.311,36.61,24.278,33.497,24.278z"/>
	<path fill="#007BB6" d="M19.545,17.747c-1.618,0-2.678,1.065-2.678,2.461c0,1.365,1.025,2.46,2.616,2.46h0.03
		c1.649,0,2.679-1.095,2.679-2.46C22.158,18.813,21.164,17.747,19.545,17.747z"/>
	<rect x="17.149" y="24.613" fill="#007BB6" width="4.732" height="14.23"/>
</g>
</svg>
