<?xml version="1.0" encoding="utf-8"?>
<!-- Generator: Adobe Illustrator 16.0.0, SVG Export Plug-In . SVG Version: 6.00 Build 0)  -->
<!DOCTYPE svg PUBLIC "-//W3C//DTD SVG 1.1//EN" "http://www.w3.org/Graphics/SVG/1.1/DTD/svg11.dtd">
<svg version="1.1" id="Livello_1" xmlns="http://www.w3.org/2000/svg" xmlns:xlink="http://www.w3.org/1999/xlink" x="0px" y="0px"
	 width="50px" height="50px" viewBox="0 0 50 50" enable-background="new 0 0 50 50" xml:space="preserve">
<g>
	<path fill="#3D3535" d="M42.839,23.282l-17.622-9.897c-0.067-0.038-0.143-0.058-0.217-0.058c-0.075,0-0.151,0.02-0.218,0.058
		L7.16,23.282c-0.141,0.078-0.229,0.228-0.229,0.389v21.2c0,0.247,0.2,0.445,0.447,0.445h11.816V30.211
		c0-0.246,0.2-0.443,0.446-0.443h10.717c0.248,0,0.447,0.197,0.447,0.443v15.105h11.816c0.246,0,0.445-0.198,0.445-0.445v-21.2
		C43.066,23.51,42.979,23.36,42.839,23.282z"/>
	<path fill="#3D3535" d="M49.182,19.533l-6.113-3.773V7.088c0-0.247-0.199-0.447-0.445-0.447h-4.988c-0.246,0-0.445,0.2-0.445,0.447
		v5.041L25.235,4.751C25.163,4.706,25.081,4.684,25,4.684c-0.082,0-0.164,0.022-0.235,0.067L0.819,19.533
		c-0.206,0.126-0.272,0.395-0.152,0.603l1.826,3.153c0.061,0.103,0.159,0.179,0.275,0.208c0.037,0.011,0.075,0.015,0.111,0.015
		c0.081,0,0.16-0.021,0.23-0.063L25,10.265l21.891,13.184c0.069,0.042,0.148,0.063,0.229,0.063c0.036,0,0.073-0.004,0.11-0.015
		c0.115-0.029,0.215-0.105,0.274-0.208l1.827-3.153C49.452,19.928,49.387,19.659,49.182,19.533z"/>
</g>
</svg>
